<svg xmlns="http://www.w3.org/2000/svg" viewBox="0 0 512 1024" shape-rendering="crispEdges">
  <rect width="512" height="1024" fill="none"/>
  <rect x="70" y="98" width="372" height="838" fill="#2A3144"/>
  <rect x="86" y="114" width="340" height="806" fill="#39445C"/>
  <rect x="224" y="122" width="64" height="750" fill="#475873"/>
  <rect x="110" y="830" width="292" height="90" fill="#243046"/>
  <g fill="#2C354B">
    <rect x="86" y="114" width="340" height="12"/>
    <rect x="86" y="222" width="340" height="12"/>
    <rect x="86" y="330" width="340" height="12"/>
    <rect x="86" y="438" width="340" height="12"/>
    <rect x="86" y="546" width="340" height="12"/>
    <rect x="86" y="654" width="340" height="12"/>
    <rect x="86" y="762" width="340" height="12"/>
  </g>
  <g fill="#72839C">
    <rect x="86" y="114" width="8" height="806"/>
    <rect x="418" y="114" width="8" height="806"/>
    <rect x="216" y="122" width="8" height="750"/>
    <rect x="288" y="122" width="8" height="750"/>
  </g>
  <g fill="#162130">
    <rect x="110" y="146" width="98" height="60"/>
    <rect x="304" y="146" width="98" height="60"/>
    <rect x="110" y="254" width="98" height="60"/>
    <rect x="304" y="254" width="98" height="60"/>
    <rect x="110" y="362" width="98" height="60"/>
    <rect x="304" y="362" width="98" height="60"/>
    <rect x="110" y="470" width="98" height="60"/>
    <rect x="304" y="470" width="98" height="60"/>
    <rect x="110" y="578" width="98" height="60"/>
    <rect x="304" y="578" width="98" height="60"/>
    <rect x="110" y="686" width="98" height="60"/>
    <rect x="304" y="686" width="98" height="60"/>
  </g>
  <rect x="190" y="852" width="132" height="68" fill="#0F1826"/>
  <rect x="226" y="872" width="60" height="48" fill="#203451"/>
</svg>
