<svg xmlns="http://www.w3.org/2000/svg" viewBox="0 0 128 512" shape-rendering="crispEdges">
  <rect width="128" height="512" fill="none"/>
  <rect x="32" y="0" width="64" height="512" fill="#3A4D6A"/>
  <rect x="40" y="8" width="48" height="496" fill="#6DDCFF"/>
  <g fill="#B6F3FF">
    <rect x="44" y="16" width="40" height="32"/>
    <rect x="44" y="80" width="40" height="32"/>
    <rect x="44" y="144" width="40" height="32"/>
    <rect x="44" y="208" width="40" height="32"/>
    <rect x="44" y="272" width="40" height="32"/>
    <rect x="44" y="336" width="40" height="32"/>
    <rect x="44" y="400" width="40" height="32"/>
  </g>
  <g fill="#2D8DB1">
    <rect x="52" y="24" width="8" height="16"/>
    <rect x="68" y="24" width="8" height="16"/>
    <rect x="52" y="88" width="8" height="16"/>
    <rect x="68" y="88" width="8" height="16"/>
    <rect x="52" y="152" width="8" height="16"/>
    <rect x="68" y="152" width="8" height="16"/>
  </g>
</svg>
