<svg xmlns="http://www.w3.org/2000/svg" viewBox="0 0 512 1024" shape-rendering="crispEdges">
  <rect width="512" height="1024" fill="none"/>
  <g fill="#1E4A74" fill-opacity="0.45">
    <rect x="110" y="146" width="98" height="60"/>
    <rect x="304" y="146" width="98" height="60"/>
    <rect x="110" y="254" width="98" height="60"/>
    <rect x="304" y="254" width="98" height="60"/>
    <rect x="110" y="362" width="98" height="60"/>
    <rect x="304" y="362" width="98" height="60"/>
    <rect x="110" y="470" width="98" height="60"/>
    <rect x="304" y="470" width="98" height="60"/>
    <rect x="110" y="578" width="98" height="60"/>
    <rect x="304" y="578" width="98" height="60"/>
    <rect x="110" y="686" width="98" height="60"/>
    <rect x="304" y="686" width="98" height="60"/>
  </g>
  <g fill="#6DB9FF" fill-opacity="0.28">
    <rect x="124" y="146" width="10" height="60"/>
    <rect x="150" y="146" width="10" height="60"/>
    <rect x="318" y="146" width="10" height="60"/>
    <rect x="344" y="146" width="10" height="60"/>
    <rect x="240" y="124" width="10" height="748"/>
    <rect x="262" y="124" width="8" height="748"/>
  </g>
</svg>
