<svg xmlns="http://www.w3.org/2000/svg" viewBox="0 0 512 1024" shape-rendering="crispEdges">
  <rect width="512" height="1024" fill="none"/>
  <g fill="#9BE7FF" fill-opacity="0.35">
    <rect x="110" y="146" width="98" height="60"/>
    <rect x="304" y="146" width="98" height="60"/>
    <rect x="110" y="254" width="98" height="60"/>
    <rect x="304" y="254" width="98" height="60"/>
    <rect x="110" y="362" width="98" height="60"/>
    <rect x="304" y="362" width="98" height="60"/>
    <rect x="110" y="470" width="98" height="60"/>
    <rect x="304" y="470" width="98" height="60"/>
    <rect x="110" y="578" width="98" height="60"/>
    <rect x="304" y="578" width="98" height="60"/>
    <rect x="110" y="686" width="98" height="60"/>
    <rect x="304" y="686" width="98" height="60"/>
  </g>
  <g fill="#E3FAFF" fill-opacity="0.55">
    <rect x="126" y="146" width="12" height="60"/>
    <rect x="152" y="146" width="12" height="60"/>
    <rect x="320" y="146" width="12" height="60"/>
    <rect x="346" y="146" width="12" height="60"/>
    <rect x="238" y="124" width="12" height="748"/>
    <rect x="258" y="124" width="10" height="748"/>
  </g>
</svg>
