<svg xmlns="http://www.w3.org/2000/svg" viewBox="0 0 768 192" shape-rendering="crispEdges">
  <rect width="768" height="192" fill="#10161F"/>
  <g transform="translate(0 0)">
    <rect width="192" height="192" fill="#2D241D"/>
    <rect x="12" y="128" width="168" height="12" fill="#5F452C"/>
    <rect x="28" y="92" width="40" height="20" fill="#8C6239"/>
    <rect x="84" y="92" width="40" height="20" fill="#8C6239"/>
    <rect x="140" y="92" width="24" height="20" fill="#8C6239"/>
    <rect x="34" y="64" width="28" height="18" fill="#90D9FF"/>
    <rect x="90" y="64" width="28" height="18" fill="#90D9FF"/>
  </g>
  <g transform="translate(192 0)">
    <rect width="192" height="192" fill="#222A23"/>
    <rect x="18" y="128" width="156" height="12" fill="#4F5D3A"/>
    <rect x="30" y="96" width="56" height="20" fill="#C2A46F"/>
    <rect x="104" y="96" width="56" height="20" fill="#C2A46F"/>
    <rect x="48" y="54" width="96" height="22" fill="#7BE1B7"/>
  </g>
  <g transform="translate(384 0)">
    <rect width="192" height="192" fill="#27242D"/>
    <rect x="16" y="126" width="160" height="12" fill="#544860"/>
    <rect x="30" y="72" width="128" height="26" fill="#3C3545"/>
    <rect x="44" y="84" width="24" height="8" fill="#90D9FF"/>
    <rect x="82" y="84" width="24" height="8" fill="#F7C26B"/>
    <rect x="120" y="84" width="24" height="8" fill="#90D9FF"/>
  </g>
  <g transform="translate(576 0)">
    <rect width="192" height="192" fill="#1D2431"/>
    <rect x="20" y="128" width="152" height="12" fill="#546271"/>
    <rect x="26" y="70" width="42" height="42" fill="#4E6378"/>
    <rect x="76" y="70" width="42" height="42" fill="#4E6378"/>
    <rect x="126" y="70" width="42" height="42" fill="#4E6378"/>
    <rect x="36" y="80" width="22" height="18" fill="#8DDFFF"/>
    <rect x="86" y="80" width="22" height="18" fill="#8DDFFF"/>
    <rect x="136" y="80" width="22" height="18" fill="#8DDFFF"/>
  </g>
</svg>
