<svg xmlns="http://www.w3.org/2000/svg" viewBox="0 0 640 240" shape-rendering="crispEdges">
  <rect width="640" height="240" fill="#262A33"/>
  <rect y="24" width="640" height="96" fill="#313742"/>
  <rect y="120" width="640" height="120" fill="#1D2027"/>
  <rect x="70" y="0" width="500" height="76" fill="#D5D6D8"/>
  <g fill="#F8F8F9">
    <rect x="92" y="32" width="20" height="44"/>
    <rect x="128" y="32" width="20" height="44"/>
    <rect x="164" y="32" width="20" height="44"/>
    <rect x="200" y="32" width="20" height="44"/>
    <rect x="236" y="32" width="20" height="44"/>
    <rect x="384" y="32" width="20" height="44"/>
    <rect x="420" y="32" width="20" height="44"/>
    <rect x="456" y="32" width="20" height="44"/>
    <rect x="492" y="32" width="20" height="44"/>
    <rect x="528" y="32" width="20" height="44"/>
  </g>
  <g fill="#7FB95D">
    <rect x="58" y="92" width="34" height="22"/>
    <rect x="548" y="92" width="34" height="22"/>
    <rect x="172" y="92" width="34" height="22"/>
    <rect x="430" y="92" width="34" height="22"/>
  </g>
  <g fill="#4D5666">
    <rect x="0" y="138" width="80" height="20"/>
    <rect x="118" y="138" width="80" height="20"/>
    <rect x="236" y="138" width="80" height="20"/>
    <rect x="354" y="138" width="80" height="20"/>
    <rect x="472" y="138" width="80" height="20"/>
  </g>
</svg>
