<svg xmlns="http://www.w3.org/2000/svg" viewBox="0 0 128 32" shape-rendering="crispEdges">
  <rect width="128" height="32" fill="none"/>
  <g transform="translate(0 0)" fill="#263248">
    <rect x="10" y="4" width="6" height="6"/>
    <rect x="8" y="10" width="10" height="10"/>
    <rect x="8" y="20" width="4" height="8"/>
    <rect x="14" y="20" width="4" height="8"/>
  </g>
  <g transform="translate(32 0)" fill="#263248">
    <rect x="10" y="4" width="6" height="6"/>
    <rect x="8" y="10" width="10" height="10"/>
    <rect x="7" y="20" width="4" height="8"/>
    <rect x="15" y="20" width="4" height="8"/>
  </g>
  <g transform="translate(64 0)" fill="#5B3D2B">
    <rect x="10" y="4" width="6" height="6"/>
    <rect x="8" y="10" width="10" height="10"/>
    <rect x="8" y="20" width="4" height="8"/>
    <rect x="14" y="20" width="4" height="8"/>
  </g>
  <g transform="translate(96 0)" fill="#5B3D2B">
    <rect x="10" y="4" width="6" height="6"/>
    <rect x="8" y="10" width="10" height="10"/>
    <rect x="7" y="20" width="4" height="8"/>
    <rect x="15" y="20" width="4" height="8"/>
  </g>
</svg>
