<svg xmlns="http://www.w3.org/2000/svg" viewBox="0 0 192 48" shape-rendering="crispEdges">
  <rect width="192" height="48" fill="none"/>
  <g transform="translate(0 0)">
    <rect x="14" y="20" width="42" height="14" fill="#314358"/>
    <rect x="20" y="14" width="18" height="8" fill="#90D9FF"/>
    <rect x="40" y="14" width="10" height="8" fill="#90D9FF"/>
    <rect x="18" y="34" width="8" height="8" fill="#1C2028"/>
    <rect x="42" y="34" width="8" height="8" fill="#1C2028"/>
  </g>
  <g transform="translate(64 0)">
    <rect x="10" y="20" width="46" height="14" fill="#6C2F2F"/>
    <rect x="16" y="14" width="20" height="8" fill="#FFB096"/>
    <rect x="38" y="14" width="12" height="8" fill="#FFB096"/>
    <rect x="16" y="34" width="8" height="8" fill="#1C2028"/>
    <rect x="42" y="34" width="8" height="8" fill="#1C2028"/>
  </g>
  <g transform="translate(128 0)">
    <rect x="14" y="20" width="42" height="14" fill="#2D5A3D"/>
    <rect x="20" y="14" width="18" height="8" fill="#A6F0C0"/>
    <rect x="40" y="14" width="10" height="8" fill="#A6F0C0"/>
    <rect x="18" y="34" width="8" height="8" fill="#1C2028"/>
    <rect x="42" y="34" width="8" height="8" fill="#1C2028"/>
  </g>
</svg>
