<svg xmlns="http://www.w3.org/2000/svg" viewBox="0 0 640 960" shape-rendering="crispEdges">
  <rect width="640" height="960" fill="none"/>
  <g fill="#16243A">
    <rect x="28" y="250" width="72" height="440"/>
    <rect x="118" y="210" width="88" height="480"/>
    <rect x="224" y="280" width="64" height="410"/>
    <rect x="340" y="220" width="74" height="470"/>
    <rect x="432" y="188" width="92" height="502"/>
    <rect x="542" y="260" width="60" height="430"/>
  </g>
  <g fill="#F2BF65">
    <rect x="42" y="278" width="8" height="12"/>
    <rect x="58" y="278" width="8" height="12"/>
    <rect x="74" y="278" width="8" height="12"/>
    <rect x="42" y="300" width="8" height="12"/>
    <rect x="140" y="242" width="10" height="14"/>
    <rect x="158" y="242" width="10" height="14"/>
    <rect x="452" y="222" width="12" height="16"/>
    <rect x="474" y="222" width="12" height="16"/>
    <rect x="496" y="222" width="12" height="16"/>
    <rect x="564" y="292" width="8" height="12"/>
    <rect x="580" y="292" width="8" height="12"/>
  </g>
  <rect x="0" y="706" width="640" height="54" fill="#102236"/>
</svg>
