<svg xmlns="http://www.w3.org/2000/svg" viewBox="0 0 640 960" shape-rendering="crispEdges">
  <rect width="640" height="960" fill="none"/>
  <g fill="#A4BCD2">
    <rect x="28" y="250" width="72" height="420"/>
    <rect x="118" y="210" width="88" height="460"/>
    <rect x="224" y="280" width="64" height="390"/>
    <rect x="340" y="220" width="74" height="450"/>
    <rect x="432" y="188" width="92" height="482"/>
    <rect x="542" y="260" width="60" height="410"/>
  </g>
  <g fill="#DDF3FF">
    <rect x="42" y="278" width="12" height="14"/>
    <rect x="60" y="278" width="12" height="14"/>
    <rect x="42" y="302" width="12" height="14"/>
    <rect x="140" y="242" width="14" height="16"/>
    <rect x="160" y="242" width="14" height="16"/>
    <rect x="452" y="222" width="16" height="18"/>
    <rect x="474" y="222" width="16" height="18"/>
    <rect x="452" y="248" width="16" height="18"/>
    <rect x="564" y="292" width="12" height="14"/>
    <rect x="582" y="292" width="12" height="14"/>
  </g>
  <g fill="#7BB95A">
    <rect x="0" y="704" width="640" height="60"/>
  </g>
</svg>
