<svg xmlns="http://www.w3.org/2000/svg" viewBox="0 0 640 960" shape-rendering="crispEdges">
  <rect width="640" height="960" fill="#091A31"/>
  <rect y="140" width="640" height="320" fill="#102446"/>
  <rect y="460" width="640" height="500" fill="#13233B"/>
  <g fill="#D6DFF2">
    <rect x="80" y="66" width="8" height="8"/>
    <rect x="110" y="110" width="6" height="6"/>
    <rect x="175" y="84" width="6" height="6"/>
    <rect x="226" y="122" width="8" height="8"/>
    <rect x="300" y="72" width="6" height="6"/>
    <rect x="366" y="96" width="8" height="8"/>
    <rect x="512" y="78" width="6" height="6"/>
    <rect x="550" y="122" width="8" height="8"/>
  </g>
  <g fill="#FFD888">
    <rect x="70" y="88" width="34" height="34"/>
    <rect x="88" y="72" width="16" height="16"/>
    <rect x="84" y="104" width="28" height="12"/>
  </g>
  <g fill="#202F4D">
    <rect x="10" y="180" width="100" height="26"/>
    <rect x="24" y="206" width="120" height="24"/>
    <rect x="490" y="156" width="110" height="26"/>
    <rect x="460" y="182" width="150" height="24"/>
    <rect x="516" y="134" width="48" height="22"/>
  </g>
</svg>
